<svg height="512" viewBox="0 0 256 256" width="512" xmlns="http://www.w3.org/2000/svg"><rect fill="#cecece" height="191.333" rx="15.327" width="223.345" x="16.327" y="8.211"/><path d="m26.327 184.217v-160.679a15.327 15.327 0 0 1 15.328-15.327h-10a15.327 15.327 0 0 0 -15.328 15.327v160.679a15.327 15.327 0 0 0 15.327 15.327h10a15.327 15.327 0 0 1 -15.327-15.327z" fill="#afafaf"/><path d="m229.673 184.217v-160.679a15.327 15.327 0 0 0 -15.328-15.327h10a15.327 15.327 0 0 1 15.327 15.327v160.679a15.327 15.327 0 0 1 -15.327 15.327h-10a15.327 15.327 0 0 0 15.328-15.327z" fill="#e2e2e2"/><path d="m239.673 23.538a15.327 15.327 0 0 0 -15.328-15.327h-192.69a15.327 15.327 0 0 0 -15.328 15.327v26.673h223.346z" fill="#f8af23"/><path d="m41.655 8.211h-10a15.327 15.327 0 0 0 -15.328 15.327v26.673h10v-26.673a15.327 15.327 0 0 1 15.328-15.327z" fill="#f87023"/><path d="m214.345 8.211h10a15.327 15.327 0 0 1 15.327 15.327v26.673h-10v-26.673a15.327 15.327 0 0 0 -15.327-15.327z" fill="#f8d323"/><circle cx="43.688" cy="29.211" fill="#f46275" r="7"/><circle cx="70.65" cy="29.211" fill="#f46275" r="7"/><circle cx="97.612" cy="29.211" fill="#f46275" r="7"/><rect fill="#f46275" height="10.667" rx="5.333" width="99.24" x="120.073" y="24.336"/><rect fill="#63bce7" height="74.543" rx="15.33" width="165.312" x="45.344" y="162.273"/><path d="m55.344 221.486v-43.886a15.33 15.33 0 0 1 15.33-15.33h-10a15.33 15.33 0 0 0 -15.33 15.33v43.883a15.33 15.33 0 0 0 15.33 15.33h10a15.33 15.33 0 0 1 -15.33-15.327z" fill="#6377e7"/><path d="m200.656 221.486v-43.886a15.33 15.33 0 0 0 -15.33-15.33h10a15.33 15.33 0 0 1 15.33 15.33v43.883a15.33 15.33 0 0 1 -15.33 15.33h-10a15.33 15.33 0 0 0 15.33-15.327z" fill="#63e2e7"/><path d="m62.724 127.178-14.732-15.887a4.219 4.219 0 0 1 -.013-5.724l14.744-16.044a4.219 4.219 0 0 1 3.107-1.364h8.085a4.219 4.219 0 0 1 3.107 7.074l-9.5 10.334a4.219 4.219 0 0 0 .013 5.724l9.411 10.149a4.219 4.219 0 0 1 -3.094 7.088h-8.034a4.219 4.219 0 0 1 -3.094-1.35z" fill="#63bce7"/><path d="m143.893 76.148q5.754 4.979 5.754 14.294 0 8.678-5.617 13.609a20.915 20.915 0 0 1 -11.3 4.836 4.249 4.249 0 0 0 -3.726 4.188 4.219 4.219 0 0 1 -4.219 4.219h-6.267a4.219 4.219 0 0 1 -4.219-4.219v-9.737a4.219 4.219 0 0 1 4.219-4.219h1.9q6.577 0 10.229-1.873t3.654-6.713a6.549 6.549 0 0 0 -1.735-4.84 6.3 6.3 0 0 0 -4.658-1.735 6.794 6.794 0 0 0 -5.161 1.963 6.536 6.536 0 0 0 -1.4 2.227 4.074 4.074 0 0 1 -3.771 2.751h-6.808a4.23 4.23 0 0 1 -4.118-5.179 18.29 18.29 0 0 1 1.85-4.82 17.509 17.509 0 0 1 7.627-7.124 26.916 26.916 0 0 1 12.33-2.6q9.68-.006 15.436 4.972zm-14.066 52.852v7.18a4.219 4.219 0 0 1 -4.219 4.219h-7.819a4.219 4.219 0 0 1 -4.219-4.219v-7.18a4.219 4.219 0 0 1 4.219-4.219h7.819a4.219 4.219 0 0 1 4.219 4.219z" fill="#63bce7"/><path d="m182.086 88.159h8.085a4.219 4.219 0 0 1 3.107 1.364l14.743 16.044a4.219 4.219 0 0 1 -.013 5.724l-14.732 15.887a4.219 4.219 0 0 1 -3.094 1.35h-8.037a4.219 4.219 0 0 1 -3.094-7.088l9.411-10.149a4.219 4.219 0 0 0 .013-5.724l-9.5-10.334a4.219 4.219 0 0 1 3.111-7.074z" fill="#63bce7"/><path d="m81.353 208.955v8.969a3.023 3.023 0 0 1 -3.023 3.023h-4.307a3.023 3.023 0 0 1 -3.023-3.024v-36.757a3.023 3.023 0 0 1 3.023-3.023h13.747q7.628 0 11.624 3.784t4 10.2a14.057 14.057 0 0 1 -1.786 7.114 12.386 12.386 0 0 1 -5.3 4.9 18.669 18.669 0 0 1 -8.537 1.786h-3.396a3.023 3.023 0 0 0 -3.022 3.028zm11.5-16.827q0-5.631-6.236-5.63h-2.242a3.023 3.023 0 0 0 -3.023 3.023v5.094a3.023 3.023 0 0 0 3.023 3.023h2.245q6.235 0 6.236-5.51z" fill="#f8af23"/><path d="m145.466 181.166v36.758a3.023 3.023 0 0 1 -3.023 3.023h-4.367a3.023 3.023 0 0 1 -3.023-3.023v-11.815a3.023 3.023 0 0 0 -3.023-3.023h-10.18a3.023 3.023 0 0 0 -3.023 3.023v11.814a3.023 3.023 0 0 1 -3.023 3.023h-4.304a3.023 3.023 0 0 1 -3.023-3.023v-36.757a3.023 3.023 0 0 1 3.023-3.023h4.3a3.023 3.023 0 0 1 3.023 3.023v10.543a3.023 3.023 0 0 0 3.023 3.023h10.18a3.023 3.023 0 0 0 3.023-3.023v-10.543a3.023 3.023 0 0 1 3.023-3.023h4.367a3.023 3.023 0 0 1 3.027 3.023z" fill="#f8af23"/><path d="m162.962 208.955v8.969a3.023 3.023 0 0 1 -3.023 3.023h-4.307a3.023 3.023 0 0 1 -3.023-3.023v-36.758a3.023 3.023 0 0 1 3.023-3.023h13.748q7.628 0 11.624 3.784t4 10.2a14.057 14.057 0 0 1 -1.786 7.114 12.386 12.386 0 0 1 -5.3 4.9 18.669 18.669 0 0 1 -8.537 1.786h-3.395a3.023 3.023 0 0 0 -3.024 3.028zm11.5-16.827q0-5.631-6.236-5.63h-2.244a3.023 3.023 0 0 0 -3.023 3.023v5.094a3.023 3.023 0 0 0 3.023 3.023h2.244q6.239 0 6.239-5.51z" fill="#f8af23"/><g fill="#3f3679"><path d="m43.688 20.711a8.5 8.5 0 1 0 8.5 8.5 8.51 8.51 0 0 0 -8.5-8.5zm0 14a5.5 5.5 0 1 1 5.5-5.5 5.506 5.506 0 0 1 -5.5 5.5z"/><path d="m70.65 20.711a8.5 8.5 0 1 0 8.5 8.5 8.51 8.51 0 0 0 -8.5-8.5zm0 14a5.5 5.5 0 1 1 5.5-5.5 5.506 5.506 0 0 1 -5.5 5.5z"/><path d="m97.612 20.711a8.5 8.5 0 1 0 8.5 8.5 8.51 8.51 0 0 0 -8.5-8.5zm0 14a5.5 5.5 0 1 1 5.5-5.5 5.506 5.506 0 0 1 -5.5 5.5z"/><path d="m213.979 22.836h-88.573a6.833 6.833 0 1 0 0 13.667h88.573a6.833 6.833 0 0 0 0-13.667zm0 10.667h-88.573a3.833 3.833 0 1 1 0-7.667h88.573a3.833 3.833 0 1 1 0 7.667z"/><path d="m27.323 246.289h-18a1.5 1.5 0 1 0 0 3h18a1.5 1.5 0 0 0 0-3z"/><path d="m246.68 246.289h-18a1.5 1.5 0 0 0 0 3h18a1.5 1.5 0 1 0 0-3z"/><path d="m218.479 246.289h-180.958a1.5 1.5 0 0 0 0 3h180.958a1.5 1.5 0 0 0 0-3z"/><path d="m9.32 238.316h237.36a1.5 1.5 0 1 0 0-3h-41.788a16.816 16.816 0 0 0 7.264-13.83v-20.442h12.189a16.846 16.846 0 0 0 16.827-16.827v-160.679a16.846 16.846 0 0 0 -16.827-16.827h-192.69a16.846 16.846 0 0 0 -16.827 16.827v160.679a16.846 16.846 0 0 0 16.827 16.827h12.189v20.441a16.816 16.816 0 0 0 7.264 13.83h-41.788a1.5 1.5 0 1 0 0 3zm8.508-214.778a13.843 13.843 0 0 1 13.827-13.827h192.69a13.843 13.843 0 0 1 13.827 13.827v25.173h-220.344zm13.827 174.506a13.843 13.843 0 0 1 -13.827-13.827v-132.506h220.344v132.506a13.843 13.843 0 0 1 -13.827 13.827h-12.189v-20.444a16.849 16.849 0 0 0 -16.83-16.83h-134.652a16.849 16.849 0 0 0 -16.83 16.83v20.441zm15.189 23.441v-43.885a13.846 13.846 0 0 1 13.83-13.83h134.652a13.846 13.846 0 0 1 13.83 13.83v43.883a13.846 13.846 0 0 1 -13.83 13.83h-134.652a13.846 13.846 0 0 1 -13.83-13.827z"/><path d="m61.624 128.2a5.736 5.736 0 0 0 4.194 1.831h8.037a5.72 5.72 0 0 0 4.194-9.608l-9.411-10.149a2.733 2.733 0 0 1 -.009-3.688l9.5-10.334a5.719 5.719 0 0 0 -4.211-9.589h-8.089a5.734 5.734 0 0 0 -4.211 1.849l-14.743 16.04a5.75 5.75 0 0 0 .018 7.759zm-12.541-21.618 14.744-16.044a2.725 2.725 0 0 1 2-.879h8.085a2.719 2.719 0 0 1 2 4.559l-9.5 10.334a5.75 5.75 0 0 0 .018 7.759l9.411 10.149a2.719 2.719 0 0 1 -1.994 4.568h-8.029a2.728 2.728 0 0 1 -1.994-.87l-14.732-15.887a2.733 2.733 0 0 1 -.009-3.689z"/><path d="m110.765 92.4h6.809a5.559 5.559 0 0 0 5.174-3.723 5.007 5.007 0 0 1 1.086-1.719 5.32 5.32 0 0 1 4.075-1.5 4.824 4.824 0 0 1 3.6 1.3 5.081 5.081 0 0 1 1.3 3.78c0 2.678-.9 4.387-2.838 5.378-2.209 1.133-5.421 1.708-9.545 1.708h-1.9a5.725 5.725 0 0 0 -5.719 5.719v9.737a5.725 5.725 0 0 0 5.719 5.719h6.267a5.725 5.725 0 0 0 5.719-5.719 2.736 2.736 0 0 1 2.427-2.7 22.47 22.47 0 0 0 12.087-5.2c4.065-3.57 6.127-8.528 6.127-14.736 0-6.636-2.11-11.827-6.272-15.428-4.1-3.545-9.624-5.343-16.417-5.343a28.52 28.52 0 0 0 -13.01 2.766 19.065 19.065 0 0 0 -8.257 7.732 19.892 19.892 0 0 0 -2 5.216 5.731 5.731 0 0 0 5.58 7.014zm-2.656-6.344a16.9 16.9 0 0 1 1.7-4.429 16.124 16.124 0 0 1 7-6.516 25.577 25.577 0 0 1 11.65-2.439c6.053 0 10.916 1.552 14.455 4.613 3.522 3.048 5.235 7.352 5.235 13.159 0 5.382-1.67 9.464-5.106 12.482a19.539 19.539 0 0 1 -10.509 4.477 5.779 5.779 0 0 0 -5.025 5.674 2.722 2.722 0 0 1 -2.719 2.719h-6.27a2.722 2.722 0 0 1 -2.719-2.719v-9.737a2.722 2.722 0 0 1 2.719-2.719h1.9c4.669 0 8.239-.667 10.913-2.038 2.04-1.044 4.47-3.288 4.47-8.048a8.015 8.015 0 0 0 -2.175-5.9 7.771 7.771 0 0 0 -5.718-2.174 8.264 8.264 0 0 0 -6.247 2.428 8.069 8.069 0 0 0 -1.722 2.733 2.588 2.588 0 0 1 -2.367 1.779h-6.809a2.731 2.731 0 0 1 -2.656-3.344z"/><path d="m125.608 123.283h-7.819a5.725 5.725 0 0 0 -5.72 5.717v7.18a5.725 5.725 0 0 0 5.719 5.719h7.819a5.725 5.725 0 0 0 5.719-5.719v-7.18a5.725 5.725 0 0 0 -5.718-5.717zm2.719 12.9a2.722 2.722 0 0 1 -2.719 2.719h-7.819a2.722 2.722 0 0 1 -2.719-2.719v-7.183a2.722 2.722 0 0 1 2.719-2.719h7.819a2.722 2.722 0 0 1 2.719 2.719z"/><path d="m187.371 106.582a2.733 2.733 0 0 1 -.009 3.688l-9.411 10.149a5.72 5.72 0 0 0 4.194 9.608h8.037a5.737 5.737 0 0 0 4.194-1.831l14.732-15.887a5.75 5.75 0 0 0 .018-7.759l-14.744-16.042a5.734 5.734 0 0 0 -4.211-1.849h-8.085a5.719 5.719 0 0 0 -4.211 9.589zm-7.775-15.3a2.653 2.653 0 0 1 2.49-1.626h8.085a2.725 2.725 0 0 1 2 .879l14.744 16.044a2.733 2.733 0 0 1 -.009 3.688l-14.732 15.888a2.728 2.728 0 0 1 -1.994.87h-8.037a2.719 2.719 0 0 1 -1.994-4.568l9.411-10.149a5.75 5.75 0 0 0 .018-7.759l-9.5-10.334a2.652 2.652 0 0 1 -.478-2.93z"/><path d="m87.771 176.643h-13.748a4.528 4.528 0 0 0 -4.523 4.523v36.758a4.528 4.528 0 0 0 4.523 4.523h4.307a4.528 4.528 0 0 0 4.523-4.523v-8.969a1.525 1.525 0 0 1 1.523-1.523h3.4a20.229 20.229 0 0 0 9.217-1.949 13.916 13.916 0 0 0 5.919-5.5 15.6 15.6 0 0 0 1.984-7.859c0-4.686-1.5-8.484-4.464-11.291-2.946-2.779-7.203-4.19-12.661-4.19zm12.529 21.857a10.83 10.83 0 0 1 -4.676 4.313 17.291 17.291 0 0 1 -7.857 1.623h-3.4a4.528 4.528 0 0 0 -4.523 4.523v8.969a1.525 1.525 0 0 1 -1.523 1.523h-4.298a1.525 1.525 0 0 1 -1.523-1.523v-36.762a1.525 1.525 0 0 1 1.523-1.523h13.748c4.665 0 8.229 1.135 10.592 3.373s3.527 5.229 3.527 9.113a12.651 12.651 0 0 1 -1.59 6.371z"/><path d="m86.62 185h-2.245a4.528 4.528 0 0 0 -4.523 4.523v5.094a4.528 4.528 0 0 0 4.523 4.523h2.245c6.73 0 7.735-4.392 7.735-7.01 0-4.6-2.747-7.13-7.735-7.13zm0 11.14h-2.245a1.525 1.525 0 0 1 -1.523-1.523v-5.094a1.525 1.525 0 0 1 1.523-1.523h2.245c4.173 0 4.735 2.088 4.735 4.13 0 1.981-.562 4.008-4.735 4.008z"/><path d="m142.443 176.643h-4.368a4.528 4.528 0 0 0 -4.523 4.523v10.542a1.525 1.525 0 0 1 -1.523 1.523h-10.179a1.525 1.525 0 0 1 -1.523-1.523v-10.542a4.528 4.528 0 0 0 -4.522-4.523h-4.305a4.528 4.528 0 0 0 -4.523 4.523v36.758a4.528 4.528 0 0 0 4.523 4.523h4.3a4.528 4.528 0 0 0 4.522-4.523v-11.815a1.525 1.525 0 0 1 1.523-1.523h10.18a1.525 1.525 0 0 1 1.523 1.523v11.814a4.528 4.528 0 0 0 4.523 4.523h4.368a4.528 4.528 0 0 0 4.522-4.523v-36.757a4.528 4.528 0 0 0 -4.518-4.523zm1.522 41.281a1.524 1.524 0 0 1 -1.522 1.523h-4.368a1.525 1.525 0 0 1 -1.523-1.523v-11.815a4.528 4.528 0 0 0 -4.523-4.523h-10.179a4.528 4.528 0 0 0 -4.523 4.523v11.814a1.524 1.524 0 0 1 -1.522 1.523h-4.305a1.525 1.525 0 0 1 -1.523-1.523v-36.757a1.525 1.525 0 0 1 1.523-1.523h4.3a1.524 1.524 0 0 1 1.522 1.523v10.542a4.528 4.528 0 0 0 4.523 4.523h10.18a4.528 4.528 0 0 0 4.523-4.523v-10.542a1.525 1.525 0 0 1 1.523-1.523h4.368a1.524 1.524 0 0 1 1.522 1.523z"/><path d="m169.38 176.643h-13.747a4.528 4.528 0 0 0 -4.523 4.523v36.758a4.528 4.528 0 0 0 4.523 4.523h4.307a4.528 4.528 0 0 0 4.523-4.523v-8.969a1.525 1.525 0 0 1 1.523-1.523h3.395a20.231 20.231 0 0 0 9.217-1.949 13.916 13.916 0 0 0 5.918-5.5 15.6 15.6 0 0 0 1.984-7.859c0-4.686-1.5-8.484-4.464-11.291-2.936-2.779-7.199-4.19-12.656-4.19zm12.532 21.857a10.822 10.822 0 0 1 -4.675 4.313 17.292 17.292 0 0 1 -7.857 1.623h-3.395a4.528 4.528 0 0 0 -4.523 4.523v8.969a1.525 1.525 0 0 1 -1.523 1.523h-4.307a1.525 1.525 0 0 1 -1.523-1.523v-36.762a1.525 1.525 0 0 1 1.523-1.523h13.748c4.665 0 8.229 1.135 10.593 3.373s3.527 5.229 3.527 9.113a12.639 12.639 0 0 1 -1.588 6.371z"/><path d="m168.229 185h-2.244a4.528 4.528 0 0 0 -4.523 4.523v5.094a4.528 4.528 0 0 0 4.523 4.523h2.244c6.731 0 7.736-4.392 7.736-7.01 0-4.6-2.747-7.13-7.736-7.13zm0 11.14h-2.244a1.525 1.525 0 0 1 -1.523-1.523v-5.094a1.525 1.525 0 0 1 1.523-1.523h2.244c4.173 0 4.736 2.088 4.736 4.13 0 1.981-.565 4.008-4.736 4.008z"/></g></svg>